<svg width="644" height="209" viewBox="0 0 644 209" fill="none" xmlns="http://www.w3.org/2000/svg">
<path d="M9 40H57V138H9V40ZM108.6 77C99.9333 77 92 77.8 84.8 79.4C77.6 81 71.4667 82.9333 66.4 85.2C61.3333 87.3333 57.5333 89.4667 55 91.6L54.6 82C55 79.2 56.0667 75.9333 57.8 72.2C59.5333 68.3333 61.8667 64.4 64.8 60.4C67.7333 56.2667 71.3333 52.4667 75.6 49C79.8667 45.4 84.7333 42.5333 90.2 40.4C95.8 38.1333 101.933 37 108.6 37V77ZM194.295 140.8C179.895 140.8 167.095 138.8 155.895 134.8C144.695 130.667 135.829 124.733 129.295 117C122.895 109.267 119.695 99.9333 119.695 89C119.695 77.5333 122.895 67.9333 129.295 60.2C135.829 52.4667 144.695 46.6667 155.895 42.8C167.095 38.9333 179.895 37 194.295 37C210.295 37 224.095 39.2 235.695 43.6C247.429 47.8667 256.429 53.9333 262.695 61.8C269.095 69.5333 272.295 78.6 272.295 89C272.295 96.7333 270.495 103.8 266.895 110.2C263.295 116.467 258.095 121.933 251.295 126.6C244.495 131.133 236.295 134.667 226.695 137.2C217.095 139.6 206.295 140.8 194.295 140.8ZM212.295 110.4C222.429 110.4 231.695 109.8 240.095 108.6C248.629 107.267 255.429 105.067 260.495 102C265.695 98.9333 268.295 94.6 268.295 89C268.295 83.2667 265.695 78.8667 260.495 75.8C255.429 72.7333 248.629 70.6 240.095 69.4C231.695 68.2 222.429 67.6 212.295 67.6C198.695 67.6 188.162 69.4 180.695 73C173.229 76.4667 169.495 81.8 169.495 89C169.495 93.6667 171.162 97.6 174.495 100.8C177.829 104 182.695 106.4 189.095 108C195.495 109.6 203.229 110.4 212.295 110.4ZM268.295 40H316.295V138H271.095C271.095 138 270.829 136.467 270.295 133.4C269.895 130.333 269.429 125.933 268.895 120.2C268.495 114.467 268.295 107.733 268.295 100V40ZM560.591 76V46H624.591V76H560.591ZM583.791 46H631.791V138H583.791V46ZM473.791 138V36L521.791 46V138H473.791ZM361.991 138V36L409.991 46V138H361.991ZM409.991 -1.14441e-05H456.191V32H429.991C424.657 31.8667 420.524 32.1333 417.591 32.8C414.791 33.4667 412.791 34.8 411.591 36.8C410.524 38.8 409.991 41.8667 409.991 46L361.991 36C361.991 28 363.457 21.3333 366.391 16C369.457 10.6667 374.457 6.66666 381.391 4C388.457 1.33332 397.991 -1.14441e-05 409.991 -1.14441e-05ZM329.391 46H567.991V76H329.391V46ZM521.791 -1.14441e-05H632.391V32H541.791C536.457 31.8667 532.324 32.1333 529.391 32.8C526.591 33.4667 524.591 34.8 523.391 36.8C522.324 38.8 521.791 41.8667 521.791 46L473.791 36C473.791 28 475.257 21.3333 478.191 16C481.257 10.6667 486.257 6.66666 493.191 4C500.257 1.33332 509.791 -1.14441e-05 521.791 -1.14441e-05Z" fill="white"/>
<path d="M22.1787 195.505C20.0241 195.505 18.0546 194.949 16.2702 193.838C14.4859 192.727 13.0719 191.196 12.0282 189.243C10.9846 187.257 10.4627 184.984 10.4627 182.425C10.4627 179.867 10.9846 177.611 12.0282 175.658C13.1056 173.672 14.5701 172.123 16.4217 171.012C18.2734 169.868 20.3439 169.295 22.6332 169.295C25.1582 169.295 27.1109 169.885 28.4912 171.063C29.9052 172.241 30.8816 173.824 31.4202 175.81C31.9926 177.796 32.2787 180.001 32.2787 182.425C32.2787 183.772 32.1104 185.203 31.7737 186.718C31.4371 188.233 30.8984 189.664 30.1577 191.01C29.4171 192.357 28.3902 193.451 27.0772 194.293C25.7642 195.101 24.1314 195.505 22.1787 195.505ZM23.5422 191.313C25.3266 191.313 26.8247 190.926 28.0367 190.152C29.2824 189.344 30.2082 188.267 30.8142 186.92C31.4202 185.573 31.7232 184.075 31.7232 182.425C31.7232 180.641 31.4034 179.076 30.7637 177.729C30.1577 176.382 29.2319 175.339 27.9862 174.598C26.7742 173.857 25.2929 173.487 23.5422 173.487C20.9162 173.487 18.8794 174.329 17.4317 176.012C16.0177 177.695 15.3107 179.833 15.3107 182.425C15.3107 184.176 15.6642 185.725 16.3712 187.071C17.0782 188.384 18.0377 189.428 19.2497 190.202C20.4954 190.943 21.9262 191.313 23.5422 191.313ZM31.7232 169.8H36.5712V195H32.1272C32.1272 195 32.0936 194.697 32.0262 194.091C31.9589 193.451 31.8916 192.694 31.8242 191.818C31.7569 190.943 31.7232 190.169 31.7232 189.495V169.8ZM53.9906 169.8H58.8386V195H53.9906V169.8ZM68.4336 169.295C69.8476 169.295 71.1269 169.497 72.2716 169.901C73.4162 170.305 74.3926 170.911 75.2006 171.719C76.0086 172.494 76.6314 173.47 77.0691 174.648C77.5404 175.793 77.7761 177.106 77.7761 178.587V195H72.9786V179.648C72.9786 177.662 72.4904 176.18 71.5141 175.204C70.5714 174.194 69.1237 173.689 67.1711 173.689C65.6561 173.689 64.2757 174.042 63.0301 174.749C61.7844 175.456 60.7576 176.399 59.9496 177.577C59.1752 178.722 58.7039 180.018 58.5356 181.466L58.4851 178.688C58.6534 177.342 59.0069 176.096 59.5456 174.951C60.1179 173.807 60.8249 172.814 61.6666 171.972C62.5419 171.097 63.5519 170.44 64.6966 170.002C65.8412 169.531 67.0869 169.295 68.4336 169.295ZM86.9166 169.295C88.3306 169.295 89.6099 169.497 90.7546 169.901C91.8993 170.305 92.8756 170.911 93.6836 171.719C94.4916 172.494 95.1144 173.47 95.5521 174.648C96.0234 175.793 96.2591 177.106 96.2591 178.587V195H91.4616V179.648C91.4616 177.662 90.9734 176.18 89.9971 175.204C89.0544 174.194 87.6068 173.689 85.6541 173.689C84.1391 173.689 82.7588 174.042 81.5131 174.749C80.2674 175.456 79.2406 176.399 78.4326 177.577C77.6583 178.722 77.1869 180.018 77.0186 181.466L76.9681 178.638C77.1364 177.291 77.4899 176.062 78.0286 174.951C78.6009 173.807 79.3248 172.814 80.2001 171.972C81.0754 171.097 82.0854 170.44 83.2301 170.002C84.3748 169.531 85.6036 169.295 86.9166 169.295ZM114.787 195.556C112.329 195.556 110.074 195.034 108.02 193.99C105.966 192.946 104.334 191.448 103.122 189.495C101.91 187.543 101.304 185.203 101.304 182.476C101.304 179.715 101.91 177.359 103.122 175.406C104.334 173.42 105.966 171.905 108.02 170.861C110.074 169.817 112.329 169.295 114.787 169.295C117.245 169.295 119.484 169.817 121.504 170.861C123.524 171.905 125.14 173.42 126.352 175.406C127.564 177.359 128.17 179.715 128.17 182.476C128.17 185.203 127.564 187.543 126.352 189.495C125.14 191.448 123.524 192.946 121.504 193.99C119.484 195.034 117.245 195.556 114.787 195.556ZM114.787 191.364C116.302 191.364 117.699 191.027 118.979 190.354C120.292 189.647 121.335 188.637 122.11 187.324C122.918 185.977 123.322 184.361 123.322 182.476C123.322 180.557 122.918 178.924 122.11 177.577C121.335 176.231 120.292 175.204 118.979 174.497C117.699 173.79 116.302 173.436 114.787 173.436C113.272 173.436 111.858 173.79 110.545 174.497C109.232 175.17 108.172 176.18 107.364 177.527C106.556 178.874 106.152 180.523 106.152 182.476C106.152 184.361 106.539 185.977 107.313 187.324C108.121 188.637 109.182 189.647 110.495 190.354C111.808 191.027 113.238 191.364 114.787 191.364ZM143.645 195.505C141.457 195.505 139.47 194.949 137.686 193.838C135.902 192.727 134.488 191.196 133.444 189.243C132.434 187.257 131.929 184.984 131.929 182.425C131.929 179.867 132.434 177.611 133.444 175.658C134.454 173.672 135.834 172.123 137.585 171.012C139.336 169.868 141.356 169.295 143.645 169.295C145.631 169.295 147.281 169.632 148.594 170.305C149.907 170.979 150.934 171.921 151.675 173.133C152.415 174.345 152.937 175.743 153.24 177.325C153.577 178.907 153.745 180.607 153.745 182.425C153.745 183.772 153.577 185.203 153.24 186.718C152.903 188.233 152.365 189.664 151.624 191.01C150.883 192.357 149.857 193.451 148.544 194.293C147.231 195.101 145.598 195.505 143.645 195.505ZM145.009 191.313C146.793 191.313 148.291 190.926 149.503 190.152C150.749 189.344 151.675 188.267 152.281 186.92C152.887 185.573 153.19 184.075 153.19 182.425C153.19 180.641 152.87 179.076 152.23 177.729C151.624 176.382 150.698 175.339 149.453 174.598C148.241 173.857 146.759 173.487 145.009 173.487C142.383 173.487 140.346 174.329 138.898 176.012C137.484 177.695 136.777 179.833 136.777 182.425C136.777 184.176 137.131 185.725 137.838 187.071C138.545 188.384 139.504 189.428 140.716 190.202C141.962 190.943 143.393 191.313 145.009 191.313ZM153.19 159.7H158.038V195H153.594C153.493 194.259 153.392 193.35 153.291 192.273C153.223 191.196 153.19 190.27 153.19 189.495V159.7ZM184.691 186.819H189.286C189.017 188.469 188.377 189.95 187.367 191.263C186.357 192.576 185.028 193.62 183.378 194.394C181.728 195.168 179.792 195.556 177.57 195.556C174.944 195.556 172.605 195 170.551 193.889C168.497 192.778 166.881 191.246 165.703 189.293C164.525 187.341 163.935 185.068 163.935 182.476C163.935 179.85 164.508 177.561 165.652 175.608C166.797 173.622 168.379 172.073 170.399 170.962C172.419 169.851 174.726 169.295 177.318 169.295C180.045 169.295 182.334 169.834 184.186 170.911C186.038 171.989 187.401 173.588 188.276 175.709C189.185 177.796 189.556 180.405 189.387 183.536H168.733C168.901 185.051 169.356 186.398 170.096 187.577C170.871 188.755 171.881 189.681 173.126 190.354C174.406 191.027 175.87 191.364 177.52 191.364C179.372 191.364 180.92 190.943 182.166 190.101C183.412 189.26 184.253 188.166 184.691 186.819ZM177.368 173.436C175.18 173.436 173.362 174.026 171.914 175.204C170.467 176.349 169.507 177.88 169.036 179.799H184.539C184.405 177.746 183.664 176.18 182.317 175.103C180.971 173.992 179.321 173.436 177.368 173.436ZM194.493 169.8H199.341V195H194.493V169.8ZM207.876 174.093C206.125 174.093 204.627 174.497 203.381 175.305C202.169 176.113 201.193 177.106 200.452 178.284C199.745 179.463 199.274 180.591 199.038 181.668L198.988 178.789C199.021 178.453 199.105 177.931 199.24 177.224C199.408 176.483 199.695 175.658 200.099 174.749C200.503 173.84 201.041 172.982 201.715 172.174C202.388 171.332 203.23 170.642 204.24 170.103C205.25 169.565 206.462 169.295 207.876 169.295V174.093ZM212.247 169.8H217.095V195H212.247V169.8ZM226.69 169.295C228.104 169.295 229.383 169.497 230.528 169.901C231.673 170.305 232.649 170.911 233.457 171.719C234.265 172.494 234.888 173.47 235.325 174.648C235.797 175.793 236.032 177.106 236.032 178.587V195H231.235V179.648C231.235 177.662 230.747 176.18 229.77 175.204C228.828 174.194 227.38 173.689 225.427 173.689C223.912 173.689 222.532 174.042 221.286 174.749C220.041 175.456 219.014 176.399 218.206 177.577C217.432 178.722 216.96 180.018 216.792 181.466L216.741 178.688C216.91 177.342 217.263 176.096 217.802 174.951C218.374 173.807 219.081 172.814 219.923 171.972C220.798 171.097 221.808 170.44 222.953 170.002C224.098 169.531 225.343 169.295 226.69 169.295ZM252.364 186.819H256.808C256.977 188.166 257.583 189.277 258.626 190.152C259.67 190.994 261.135 191.414 263.02 191.414C264.232 191.414 265.175 191.28 265.848 191.01C266.521 190.707 266.993 190.303 267.262 189.798C267.565 189.293 267.716 188.738 267.716 188.132C267.716 187.358 267.514 186.768 267.11 186.364C266.706 185.927 266.134 185.573 265.393 185.304C264.653 185.001 263.777 184.715 262.767 184.445C261.656 184.142 260.545 183.789 259.434 183.385C258.323 182.981 257.297 182.493 256.354 181.92C255.445 181.348 254.704 180.641 254.132 179.799C253.593 178.924 253.324 177.864 253.324 176.618C253.324 175.574 253.543 174.598 253.98 173.689C254.452 172.78 255.108 172.006 255.95 171.366C256.825 170.693 257.835 170.188 258.98 169.851C260.125 169.481 261.387 169.295 262.767 169.295C264.686 169.295 266.302 169.649 267.615 170.356C268.928 171.029 269.922 171.989 270.595 173.234C271.302 174.48 271.672 175.911 271.706 177.527H267.464C267.228 176.113 266.74 175.086 265.999 174.446C265.259 173.773 264.148 173.436 262.666 173.436C261.219 173.436 260.108 173.723 259.333 174.295C258.559 174.867 258.172 175.642 258.172 176.618C258.172 177.359 258.441 177.965 258.98 178.436C259.519 178.874 260.242 179.261 261.151 179.597C262.06 179.934 263.087 180.288 264.232 180.658C265.309 181.028 266.336 181.415 267.312 181.819C268.322 182.19 269.215 182.644 269.989 183.183C270.797 183.688 271.42 184.361 271.857 185.203C272.329 186.011 272.564 187.021 272.564 188.233C272.564 189.714 272.194 191.01 271.453 192.121C270.713 193.199 269.635 194.04 268.221 194.646C266.841 195.253 265.158 195.556 263.171 195.556C261.353 195.556 259.805 195.337 258.525 194.899C257.28 194.461 256.219 193.889 255.344 193.182C254.502 192.475 253.846 191.734 253.374 190.96C252.937 190.152 252.634 189.378 252.465 188.637C252.331 187.896 252.297 187.29 252.364 186.819ZM275.873 169.8H292.184V173.992H275.873V169.8ZM281.63 163.134H286.427V195H281.63V163.134ZM296.775 169.8H301.623V195H296.775V169.8ZM310.158 174.093C308.407 174.093 306.909 174.497 305.663 175.305C304.451 176.113 303.475 177.106 302.734 178.284C302.027 179.463 301.556 180.591 301.32 181.668L301.27 178.789C301.303 178.453 301.388 177.931 301.522 177.224C301.691 176.483 301.977 175.658 302.381 174.749C302.785 173.84 303.323 172.982 303.997 172.174C304.67 171.332 305.512 170.642 306.522 170.103C307.532 169.565 308.744 169.295 310.158 169.295V174.093ZM333.972 186.819H338.567C338.298 188.469 337.658 189.95 336.648 191.263C335.638 192.576 334.308 193.62 332.659 194.394C331.009 195.168 329.073 195.556 326.851 195.556C324.225 195.556 321.885 195 319.832 193.889C317.778 192.778 316.162 191.246 314.984 189.293C313.805 187.341 313.216 185.068 313.216 182.476C313.216 179.85 313.788 177.561 314.933 175.608C316.078 173.622 317.66 172.073 319.68 170.962C321.7 169.851 324.006 169.295 326.599 169.295C329.326 169.295 331.615 169.834 333.467 170.911C335.318 171.989 336.682 173.588 337.557 175.709C338.466 177.796 338.836 180.405 338.668 183.536H318.014C318.182 185.051 318.636 186.398 319.377 187.577C320.151 188.755 321.161 189.681 322.407 190.354C323.686 191.027 325.151 191.364 326.801 191.364C328.652 191.364 330.201 190.943 331.447 190.101C332.692 189.26 333.534 188.166 333.972 186.819ZM326.649 173.436C324.461 173.436 322.643 174.026 321.195 175.204C319.747 176.349 318.788 177.88 318.317 179.799H333.82C333.685 177.746 332.945 176.18 331.598 175.103C330.251 173.992 328.602 173.436 326.649 173.436ZM354.177 195.505C352.022 195.505 350.053 194.949 348.268 193.838C346.484 192.727 345.07 191.196 344.026 189.243C342.983 187.257 342.461 184.984 342.461 182.425C342.461 179.867 342.983 177.611 344.026 175.658C345.104 173.672 346.568 172.123 348.42 171.012C350.271 169.868 352.342 169.295 354.631 169.295C357.156 169.295 359.109 169.885 360.489 171.063C361.903 172.241 362.88 173.824 363.418 175.81C363.991 177.796 364.277 180.001 364.277 182.425C364.277 183.772 364.108 185.203 363.772 186.718C363.435 188.233 362.896 189.664 362.156 191.01C361.415 192.357 360.388 193.451 359.075 194.293C357.762 195.101 356.129 195.505 354.177 195.505ZM355.54 191.313C357.325 191.313 358.823 190.926 360.035 190.152C361.28 189.344 362.206 188.267 362.812 186.92C363.418 185.573 363.721 184.075 363.721 182.425C363.721 180.641 363.401 179.076 362.762 177.729C362.156 176.382 361.23 175.339 359.984 174.598C358.772 173.857 357.291 173.487 355.54 173.487C352.914 173.487 350.877 174.329 349.43 176.012C348.016 177.695 347.309 179.833 347.309 182.425C347.309 184.176 347.662 185.725 348.369 187.071C349.076 188.384 350.036 189.428 351.248 190.202C352.493 190.943 353.924 191.313 355.54 191.313ZM363.721 169.8H368.569V195H364.125C364.125 195 364.092 194.697 364.024 194.091C363.957 193.451 363.89 192.694 363.822 191.818C363.755 190.943 363.721 190.169 363.721 189.495V169.8ZM374.892 169.8H379.74V195H374.892V169.8ZM389.335 169.295C390.749 169.295 392.029 169.497 393.173 169.901C394.318 170.305 395.294 170.911 396.102 171.719C396.91 172.494 397.533 173.47 397.971 174.648C398.442 175.793 398.678 177.106 398.678 178.587V195H393.88V179.648C393.88 177.662 393.392 176.18 392.416 175.204C391.473 174.194 390.026 173.689 388.073 173.689C386.558 173.689 385.178 174.042 383.932 174.749C382.686 175.456 381.659 176.399 380.851 177.577C380.077 178.722 379.606 180.018 379.437 181.466L379.387 178.688C379.555 177.342 379.909 176.096 380.447 174.951C381.02 173.807 381.727 172.814 382.568 171.972C383.444 171.097 384.454 170.44 385.598 170.002C386.743 169.531 387.989 169.295 389.335 169.295ZM407.818 169.295C409.232 169.295 410.512 169.497 411.656 169.901C412.801 170.305 413.777 170.911 414.585 171.719C415.393 172.494 416.016 173.47 416.454 174.648C416.925 175.793 417.161 177.106 417.161 178.587V195H412.363V179.648C412.363 177.662 411.875 176.18 410.899 175.204C409.956 174.194 408.509 173.689 406.556 173.689C405.041 173.689 403.661 174.042 402.415 174.749C401.169 175.456 400.142 176.399 399.334 177.577C398.56 178.722 398.089 180.018 397.92 181.466L397.87 178.638C398.038 177.291 398.392 176.062 398.93 174.951C399.503 173.807 400.227 172.814 401.102 171.972C401.977 171.097 402.987 170.44 404.132 170.002C405.277 169.531 406.505 169.295 407.818 169.295ZM429.326 159.397V164.599H423.316V159.397H429.326ZM423.922 169.8H428.72V195H423.922V169.8ZM435.552 169.8H440.4V195H435.552V169.8ZM449.995 169.295C451.409 169.295 452.688 169.497 453.833 169.901C454.977 170.305 455.954 170.911 456.762 171.719C457.57 172.494 458.192 173.47 458.63 174.648C459.101 175.793 459.337 177.106 459.337 178.587V195H454.54V179.648C454.54 177.662 454.051 176.18 453.075 175.204C452.132 174.194 450.685 173.689 448.732 173.689C447.217 173.689 445.837 174.042 444.591 174.749C443.345 175.456 442.319 176.399 441.511 177.577C440.736 178.722 440.265 180.018 440.097 181.466L440.046 178.688C440.214 177.342 440.568 176.096 441.107 174.951C441.679 173.807 442.386 172.814 443.228 171.972C444.103 171.097 445.113 170.44 446.258 170.002C447.402 169.531 448.648 169.295 449.995 169.295ZM475.834 191.061C473.747 191.061 471.828 190.64 470.077 189.798C468.327 188.957 466.93 187.728 465.886 186.112C464.876 184.496 464.371 182.543 464.371 180.254C464.371 177.998 464.876 176.062 465.886 174.446C466.896 172.797 468.259 171.534 469.976 170.659C471.727 169.75 473.68 169.295 475.834 169.295C476.474 169.295 477.08 169.346 477.652 169.447C478.225 169.514 478.78 169.632 479.319 169.8H490.328V174.345C488.813 174.345 487.281 174.093 485.732 173.588C484.217 173.083 482.888 172.544 481.743 171.972L481.591 171.719C482.736 172.325 483.729 173.066 484.571 173.941C485.413 174.783 486.052 175.743 486.49 176.82C486.961 177.864 487.197 179.042 487.197 180.355C487.197 182.577 486.692 184.496 485.682 186.112C484.706 187.728 483.342 188.957 481.591 189.798C479.874 190.64 477.955 191.061 475.834 191.061ZM483.561 205.201V204.04C483.561 202.323 483.09 201.094 482.147 200.353C481.204 199.612 479.824 199.242 478.006 199.242H472.097C470.852 199.242 469.791 199.141 468.916 198.939C468.041 198.737 467.317 198.434 466.744 198.03C466.172 197.66 465.751 197.188 465.482 196.616C465.213 196.077 465.078 195.471 465.078 194.798C465.078 193.485 465.482 192.492 466.29 191.818C467.098 191.145 468.125 190.724 469.37 190.556C470.616 190.354 471.879 190.337 473.158 190.505L475.834 191.061C473.915 191.162 472.451 191.347 471.441 191.616C470.431 191.886 469.926 192.458 469.926 193.334C469.926 193.838 470.128 194.242 470.532 194.545C470.936 194.848 471.508 195 472.249 195H478.41C480.329 195 482.029 195.236 483.51 195.707C485.025 196.212 486.204 197.037 487.045 198.182C487.921 199.36 488.358 200.959 488.358 202.979V205.201H483.561ZM475.834 186.97C477.046 186.97 478.141 186.718 479.117 186.213C480.127 185.674 480.935 184.917 481.541 183.94C482.147 182.93 482.45 181.718 482.45 180.304C482.45 178.857 482.147 177.628 481.541 176.618C480.969 175.574 480.177 174.8 479.167 174.295C478.157 173.756 477.046 173.487 475.834 173.487C474.622 173.487 473.495 173.756 472.451 174.295C471.441 174.8 470.633 175.557 470.027 176.567C469.421 177.577 469.118 178.823 469.118 180.304C469.118 181.718 469.421 182.93 470.027 183.94C470.633 184.917 471.441 185.674 472.451 186.213C473.461 186.718 474.589 186.97 475.834 186.97ZM530.719 185.405C530.517 187.492 529.844 189.31 528.699 190.859C527.588 192.374 526.124 193.535 524.306 194.343C522.488 195.152 520.468 195.556 518.246 195.556C515.788 195.556 513.532 195.051 511.479 194.04C509.425 192.997 507.775 191.499 506.53 189.546C505.318 187.56 504.712 185.203 504.712 182.476C504.712 179.715 505.318 177.359 506.53 175.406C507.775 173.42 509.425 171.905 511.479 170.861C513.532 169.817 515.788 169.295 518.246 169.295C520.468 169.295 522.471 169.699 524.255 170.507C526.04 171.315 527.504 172.477 528.649 173.992C529.793 175.473 530.484 177.258 530.719 179.345H526.326C525.753 177.527 524.727 176.096 523.245 175.052C521.798 173.975 520.131 173.436 518.246 173.436C516.697 173.436 515.249 173.79 513.903 174.497C512.59 175.204 511.529 176.231 510.721 177.577C509.947 178.89 509.56 180.523 509.56 182.476C509.56 184.361 509.947 185.977 510.721 187.324C511.529 188.637 512.59 189.647 513.903 190.354C515.216 191.027 516.663 191.364 518.246 191.364C520.4 191.364 522.151 190.842 523.498 189.798C524.844 188.755 525.804 187.29 526.376 185.405H530.719ZM536.268 159.7H541.116V195H536.268V159.7ZM553.85 159.397V164.599H547.84V159.397H553.85ZM548.446 169.8H553.244V195H548.446V169.8ZM579.518 186.819H584.114C583.844 188.469 583.205 189.95 582.195 191.263C581.185 192.576 579.855 193.62 578.205 194.394C576.555 195.168 574.62 195.556 572.398 195.556C569.772 195.556 567.432 195 565.378 193.889C563.324 192.778 561.708 191.246 560.53 189.293C559.352 187.341 558.763 185.068 558.763 182.476C558.763 179.85 559.335 177.561 560.48 175.608C561.624 173.622 563.207 172.073 565.227 170.962C567.247 169.851 569.553 169.295 572.145 169.295C574.872 169.295 577.161 169.834 579.013 170.911C580.865 171.989 582.228 173.588 583.104 175.709C584.013 177.796 584.383 180.405 584.215 183.536H563.56C563.728 185.051 564.183 186.398 564.924 187.577C565.698 188.755 566.708 189.681 567.954 190.354C569.233 191.027 570.697 191.364 572.347 191.364C574.199 191.364 575.747 190.943 576.993 190.101C578.239 189.26 579.08 188.166 579.518 186.819ZM572.196 173.436C570.007 173.436 568.189 174.026 566.742 175.204C565.294 176.349 564.334 177.88 563.863 179.799H579.367C579.232 177.746 578.491 176.18 577.145 175.103C575.798 173.992 574.148 173.436 572.196 173.436ZM589.32 169.8H594.168V195H589.32V169.8ZM603.763 169.295C605.177 169.295 606.457 169.497 607.601 169.901C608.746 170.305 609.722 170.911 610.53 171.719C611.338 172.494 611.961 173.47 612.399 174.648C612.87 175.793 613.106 177.106 613.106 178.587V195H608.308V179.648C608.308 177.662 607.82 176.18 606.844 175.204C605.901 174.194 604.453 173.689 602.501 173.689C600.986 173.689 599.605 174.042 598.36 174.749C597.114 175.456 596.087 176.399 595.279 177.577C594.505 178.722 594.034 180.018 593.865 181.466L593.815 178.688C593.983 177.342 594.337 176.096 594.875 174.951C595.448 173.807 596.155 172.814 596.996 171.972C597.872 171.097 598.882 170.44 600.026 170.002C601.171 169.531 602.417 169.295 603.763 169.295ZM617.685 169.8H633.996V173.992H617.685V169.8ZM623.442 163.134H628.239V195H623.442V163.134Z" fill="#878787"/>
</svg>
